<svg xmlns="http://www.w3.org/2000/svg" width="70.084" height="41.421" viewBox="0 0 70.084 41.421">
  <g id="chart" transform="translate(-1381.564 -1107.823)">
    <line id="Line_7" data-name="Line 7" y1="25" x2="14" transform="translate(1382 1124)" fill="none" stroke="#d50000" stroke-width="1"/>
    <circle id="Ellipse_13" data-name="Ellipse 13" cx="2.5" cy="2.5" r="2.5" transform="translate(1393 1123)" fill="#d50000"/>
    <line id="Line_8" data-name="Line 8" y1="19" x2="11" transform="translate(1411.782 1134.395) rotate(120)" fill="none" stroke="#d50000" stroke-width="1"/>
    <circle id="Ellipse_14" data-name="Ellipse 14" cx="2" cy="2" r="2" transform="translate(1408.648 1141.823) rotate(120)" fill="#d50000"/>
    <line id="Line_9" data-name="Line 9" y1="25" x2="14" transform="translate(1406 1118)" fill="none" stroke="#d50000" stroke-width="1"/>
    <circle id="Ellipse_15" data-name="Ellipse 15" cx="2" cy="2" r="2" transform="translate(1422.648 1117.823) rotate(120)" fill="#d50000"/>
    <line id="Line_10" data-name="Line 10" x2="5.172" y2="5.605" transform="translate(1420.328 1118.895)" fill="none" stroke="#d50000" stroke-width="1"/>
    <circle id="Ellipse_16" data-name="Ellipse 16" cx="2" cy="2" r="2" transform="translate(1428.648 1123.823) rotate(120)" fill="#d50000"/>
    <line id="Line_11" data-name="Line 11" y1="14" x2="8" transform="translate(1426 1111)" fill="none" stroke="#d50000" stroke-width="1"/>
    <line id="Line_12" data-name="Line 12" x2="5.172" y2="5.605" transform="translate(1420.328 1118.895)" fill="none" stroke="#d50000" stroke-width="1"/>
    <circle id="Ellipse_17" data-name="Ellipse 17" cx="2" cy="2" r="2" transform="translate(1436.648 1109.823) rotate(120)" fill="#d50000"/>
    <line id="Line_13" data-name="Line 13" x2="10.172" y2="26.605" transform="translate(1434.328 1109.895)" fill="none" stroke="#d50000" stroke-width="1"/>
    <circle id="Ellipse_18" data-name="Ellipse 18" cx="2" cy="2" r="2" transform="translate(1447.648 1135.823) rotate(120)" fill="#d50000"/>
    <line id="Line_14" data-name="Line 14" y1="10" x2="4" transform="translate(1445 1127)" fill="none" stroke="#d50000" stroke-width="1"/>
    <circle id="Ellipse_19" data-name="Ellipse 19" cx="2" cy="2" r="2" transform="translate(1451.648 1125.823) rotate(120)" fill="#d50000"/>
  </g>
</svg>
