<svg xmlns="http://www.w3.org/2000/svg" width="815" height="555.68" viewBox="0 0 815 555.68">
  <g id="undraw_transfer_money_rywa" transform="translate(0 -35.866)">
    <circle id="Ellipse_33" data-name="Ellipse 33" cx="276.5" cy="276.5" r="276.5" transform="translate(72 35.866)" fill="#f2f2f2"/>
    <ellipse id="Ellipse_34" data-name="Ellipse 34" cx="109.754" cy="17.561" rx="109.754" ry="17.561" transform="translate(0 556.425)" fill="#f2f2f2"/>
    <ellipse id="Ellipse_35" data-name="Ellipse 35" cx="169.823" cy="27.172" rx="169.823" ry="27.172" transform="translate(475.355 519.352)" fill="#f2f2f2"/>
    <path id="Path_283" data-name="Path 283" d="M864.75,435.945S866.2,440.764,858,445.1s-10.6,20.723-.964,25.543,12.53,11.085,7.711,15.422-13.494,15.9-1.928,18.8,13.012,8.675,9.639,11.085,7.711-4.337,7.711-4.337,1.928,11.566,12.048,8.675,38.555-57.833,24.1-65.544S864.75,435.945,864.75,435.945Z" transform="translate(-257.305 -150.595)" fill="#2f2e41"/>
    <path id="Path_284" data-name="Path 284" d="M886.642,496.284s5,17.5-3.749,18.747a34.153,34.153,0,0,0-15,6.249l16.247,21.246h29.995l18.747-18.747s-25-18.747-20-29.995S886.642,496.284,886.642,496.284Z" transform="translate(-261.729 -164.398)" fill="#ffb9b9"/>
    <path id="Path_285" data-name="Path 285" d="M886.642,496.284s5,17.5-3.749,18.747a34.153,34.153,0,0,0-15,6.249l16.247,21.246h29.995l18.747-18.747s-25-18.747-20-29.995S886.642,496.284,886.642,496.284Z" transform="translate(-261.729 -164.398)" opacity="0.1"/>
    <path id="Path_286" data-name="Path 286" d="M852.787,734.351l28.745,10,20,1.25-1.25-17.5-41.243-12.2Z" transform="translate(-220.374 -185.002)" fill="#ffb9b9"/>
    <path id="Path_287" data-name="Path 287" d="M953,781.1s0,17.5,2.5,17.5,36.244-3.749,46.242,0,25-10,17.5-17.5-19.73-18.747-27.362-16.247S953,773.6,953,773.6Z" transform="translate(-283.722 -235.497)" fill="#575a89"/>
    <path id="Path_288" data-name="Path 288" d="M826.194,764.974s-15,29.995-5,32.495,21.246-1.25,22.5-2.5,18.747-6.249,21.246-3.749,2.5-10,2.5-10Z" transform="translate(-248.772 -235.621)" fill="#575a89"/>
    <path id="Path_289" data-name="Path 289" d="M841.568,709.359s-23.746,32.495-6.249,41.243,101.233,8.748,107.482,0,8.748-36.244,0-38.743S841.568,709.359,841.568,709.359Z" transform="translate(-251.648 -221.249)" fill="#2f2e41"/>
    <path id="Path_290" data-name="Path 290" d="M841.568,709.359s-23.746,32.495-6.249,41.243,101.233,8.748,107.482,0,8.748-36.244,0-38.743S841.568,709.359,841.568,709.359Z" transform="translate(-251.648 -221.249)" opacity="0.2"/>
    <circle id="Ellipse_36" data-name="Ellipse 36" cx="28.745" cy="28.745" r="28.745" transform="translate(606.167 283.144)" fill="#ffb9b9"/>
    <path id="Path_291" data-name="Path 291" d="M845.987,530.661l25-5s6.249,20,26.246,16.247,25-16.247,25-16.247,15,6.249,16.247,6.249,17.5,6.249,17.5,10-18.747,41.243-18.747,41.243l2.5,67.488-92.484-2.5,6.249-66.239Z" transform="translate(-256.067 -173.779)" fill="#d50000"/>
    <path id="Path_292" data-name="Path 292" d="M825.979,576.22s-7.5,66.239-2.5,71.238,25,18.747,25,18.747v-15l-10-18.747,10-43.743Z" transform="translate(-249.807 -186.844)" fill="#ffb9b9"/>
    <path id="Path_293" data-name="Path 293" d="M992.949,573.692s-4.374,68.113-4.374,70.613-11.248,11.248-15,11.248-6.249-6.249-6.249-6.249l8.749-10-6.249-51.241Z" transform="translate(-287.424 -186.191)" fill="#ffb9b9"/>
    <path id="Path_294" data-name="Path 294" d="M965.616,697.779s56.24-31.245,57.49,0-28.745,43.743-28.745,43.743-77.487,23.235-80.611,14.742-9.373-22.241-4.374-23.491,11.248-3.749,13.748-1.25,33.744-18.747,33.744-18.747Z" transform="translate(-271.964 -214.668)" fill="#2f2e41"/>
    <path id="Path_295" data-name="Path 295" d="M1009.063,697.562s-11.248,5-15,8.748-20,10-20,10" transform="translate(-289.166 -218.201)" fill="none" stroke="#000" stroke-miterlimit="10" stroke-width="2" opacity="0.2"/>
    <path id="Path_296" data-name="Path 296" d="M846.354,534.9l-7.5-2.5s-27.5,28.745-18.747,36.244,13.748,10,16.247,12.5,15,3.749,15,3.749Z" transform="translate(-248.936 -175.521)" fill="#d50000"/>
    <path id="Path_297" data-name="Path 297" d="M973.028,544.2l11.248,2.5s8.748,18.747,11.248,21.246-3.749,1.25-7.5,6.249-7.5,13.748-15,13.748-17.5-12.5-17.5-12.5Z" transform="translate(-284.375 -178.57)" fill="#d50000"/>
    <path id="Path_298" data-name="Path 298" d="M826.439,711.524s-47.492-33.744-63.739-8.748,69.988,58.74,82.486,63.739,23.746,10,23.746,10,11.248-27.5,11.248-32.495-8.748-5-11.248-5-13.748-2.5-16.247-6.249S826.439,711.524,826.439,711.524Z" transform="translate(-234.02 -217.165)" fill="#2f2e41"/>
    <path id="Path_299" data-name="Path 299" d="M813.966,705.988s12.5,10,23.746,12.5,15,8.749,15,8.749" transform="translate(-247.792 -220.378)" fill="none" stroke="#000" stroke-miterlimit="10" stroke-width="2" opacity="0.2"/>
    <path id="Path_300" data-name="Path 300" d="M837.732,640.27l1,52.917a6.624,6.624,0,0,0,6.7,6.5l98.475-1.106a6.624,6.624,0,0,0,6.539-6.242l2.989-51.81a6.624,6.624,0,0,0-6.613-7.006H844.355a6.624,6.624,0,0,0-6.623,6.749Z" transform="translate(-253.933 -201.652)" fill="#575a89"/>
    <path id="Path_301" data-name="Path 301" d="M903.333,423.04s1.6,5.339-7.474,10.144-11.746,22.957-1.068,28.3,13.881,12.279,8.542,17.085-14.949,17.618-2.136,20.822,14.415,9.61,10.678,12.279,8.542-4.8,8.542-4.8,2.136,12.813,13.347,9.61,22.4-61.433,9.9-76.43C932.045,426.1,903.333,423.04,903.333,423.04Z" transform="translate(-266.886 -147.26)" fill="#2f2e41"/>
    <path id="Path_302" data-name="Path 302" d="M904.13,414.359c0-7.822,23.4-2.2,33.437,8.72,6.948,7.563,17.5,18.94,8.658,26.96s15.158,18.534,21.594,21.721,19.146,12.935,7.67,19.475-11.29,13.141-6.972,14.7S959,503.614,959,503.614s1.4,12.915-10.262,12.853-45.112-64.143-37.121-81.955C919.043,417.951,904.13,414.359,904.13,414.359Z" transform="translate(-271.092 -144.074)" fill="#2f2e41"/>
    <path id="Path_303" data-name="Path 303" d="M898.965,413.28c-31.293-1.884-34.434,21.671-34.434,21.671.216,13.632,21.864,6.99,27.876,9.022,7.254-5.218,21.236-15.091,31.235-22.137A47.293,47.293,0,0,0,898.965,413.28Z" transform="translate(-260.859 -144.71)" fill="#2f2e41"/>
    <path id="Path_304" data-name="Path 304" d="M827.936,536.91s-28.07-131.556-203.767-226.99" transform="translate(-198.746 -118.028)" fill="none" stroke="#3f3d56" stroke-miterlimit="10" stroke-width="2"/>
    <path id="Path_305" data-name="Path 305" d="M580.415,254.891l.352,1.442-7.107,1.723,2.239,6.963-1.413.453-2.725-8.481Z" transform="translate(-147.752 -65.868)" fill="#3f3d56"/>
    <path id="Path_306" data-name="Path 306" d="M103.554,784.079c0,16.662-9.9,22.48-22.124,22.48q-.425,0-.848-.009c-.566-.012-1.127-.039-1.681-.077-11.028-.78-19.6-6.9-19.6-22.394,0-16.037,20.493-36.273,22.033-37.77l0,0,.089-.086S103.554,767.416,103.554,784.079Z" transform="translate(-52.776 -230.775)" fill="#d50000"/>
    <path id="Path_307" data-name="Path 307" d="M84.954,804.01,93.046,792.7l-8.112,12.548-.022,1.3c-.566-.012-1.127-.039-1.681-.077L84.1,789.8l-.007-.129.015-.024.082-1.574-8.132-12.579,8.158,11.4.019.334.659-12.6-6.962-13,7.047,10.788.686-26.113,0-.089v.086L85.556,766.9l6.931-8.163-6.96,9.937-.183,11.277,6.472-10.823-6.5,12.482-.1,6.269,9.4-15.064-9.43,17.251Z" transform="translate(-57.105 -230.775)" fill="#3f3d56"/>
    <path id="Path_308" data-name="Path 308" d="M246.3,790.225l4.733-3.516s3.133,17.5-.363,20.121-16.6,6.991-16.6,12.235-29.714,12.235-30.587,4.37S206.1,811.2,206.1,811.2s13.983-13.983,15.731-16.6,6.117-7.865,6.117-7.865Z" transform="translate(-89.996 -241.238)" fill="#2f2e41"/>
    <path id="Path_309" data-name="Path 309" d="M167,494.664s.131.769.358,2.176c.21,1.25.5,3.015.848,5.191,3.671,22.4,14.376,88.336,13.651,90.513-.874,2.622-6.991,12.235,0,14.857a5.422,5.422,0,0,1,2.176,2.368,50.794,50.794,0,0,1,3.7,8.722c4.169,12.1,8.626,31.453,11.2,44.859,1.127,5.89,1.9,10.627,2.124,13.109a7.128,7.128,0,0,1,.026,1.73c-.874,3.5,5.244,15.731,7.865,19.226s6.991,6.991,6.117,10.487,21.848,13.109,24.47,6.991,2.622-9.613,3.5-11.361,1.748-13.983-2.622-15.731-1.748-32.335-6.117-38.453c-1.459-2.036-3.688-8.932-6.021-17.225-.918-3.251-1.844-6.712-2.753-10.181-3.688-14.219-6.956-28.525-6.956-28.525l.874-102.249-48.066-6.117-1.232,2.718-2.456,5.392Z" transform="translate(-80.605 -163.284)" fill="#2f2e41"/>
    <path id="Path_310" data-name="Path 310" d="M152.056,723.2s-6.991-6.991-10.487,0-6.991,34.083-13.109,40.2-13.983,36.7-5.244,38.453,18.352-2.622,19.226-7.865,19.226-32.335,19.226-34.957-12.235-12.235-12.235-12.235Z" transform="translate(-68.286 -224.022)" fill="#2f2e41"/>
    <path id="Path_311" data-name="Path 311" d="M268.739,432.362s-11.361,102.25-13.983,111.863-16.6,46.318-20.974,52.436-32.335,55.931-35.831,58.553-10.487,9.613-10.487,9.613-13.109,13.109-14.857,15.731-16.6-5.244-17.479-10.487.874-13.983,1.748-17.479-1.748-8.739.874-11.361,15.731-15.731,15.731-21.848,22.722-41.948,31.461-49.814,6.991-20.974,6.991-20.974V495.284l-48.066-14.857s2.622-41.949,8.739-41.949S259.126,424.5,268.739,432.362Z" transform="translate(-77.476 -149.048)" fill="#2f2e41"/>
    <circle id="Ellipse_37" data-name="Ellipse 37" cx="28.84" cy="28.84" r="28.84" transform="translate(91.635 79.688)" fill="#9f616a"/>
    <path id="Path_312" data-name="Path 312" d="M212.52,222.961s3.5,13.109,7.865,16.6-11.361,18.352-11.361,18.352l-29.714,1.748-5.244-16.6s9.613-19.226,6.991-31.461S212.52,222.961,212.52,222.961Z" transform="translate(-82.432 -91.711)" fill="#9f616a"/>
    <path id="Path_313" data-name="Path 313" d="M222.928,248.18s-7.865.874-9.613,3.5-13.983,10.487-23.6,8.739-15.731-4.37-17.479-3.5S167,276.145,167,276.145l9.613,27.966-1.748,76.906-2.622,20.974S167,395,187.971,399.369s48.066-3.5,56.805-4.37,23.6-3.5,24.47-8.739-2.622-24.47-2.622-24.47l-13.983-58.553L243.9,271.776Z" transform="translate(-80.605 -102.073)" fill="#d50000"/>
    <path id="Path_314" data-name="Path 314" d="M231.271,242.207s7.392-3.921,10.014-.425,35.831,8.739,35.831,11.361,6.991,73.41,5.244,79.527,3.5,13.109,3.5,13.109L291.973,372s16.6,49.814,9.613,51.562-13.109,0-15.731,0-1.748-33.209-8.739-41.948-16.6-30.587-18.352-34.957-23.6-64.671-22.722-71.662S231.271,242.207,231.271,242.207Z" transform="translate(-97.214 -100.045)" fill="#d0cde1"/>
    <path id="Path_315" data-name="Path 315" d="M169.526,248.18s-6.991,0-7.865,1.748-9.613,13.109-13.109,15.731-15.731,13.983-15.731,16.6,25.344,21.848,25.344,21.848,10.487,51.562,5.244,69.04S150.3,432.578,153.8,435.2s11.361,3.5,11.361,0,5.244-41.075,9.613-48.94S192.248,328.581,187,314.6,169.526,248.18,169.526,248.18Z" transform="translate(-71.773 -102.073)" fill="#d0cde1"/>
    <path id="Path_316" data-name="Path 316" d="M316.251,364.847s.874,27.092-8.739,41.075a166.081,166.081,0,0,0-15.731,29.714s-15.731-4.37-18.352-9.613S254.2,425.148,254.2,423.4s20.1-10.487,21.848-12.235,7.865-1.748,11.361-5.244,4.37-11.361,4.37-11.361l3.5-22.722Z" transform="translate(-103.14 -132.222)" fill="#9f616a"/>
    <path id="Path_317" data-name="Path 317" d="M219.578,164.13a16.62,16.62,0,0,0,6.468-1.481c4.394-2.369,5.559-9.117,2.214-12.822a16.571,16.571,0,0,0-3.072-2.471l-6.643-4.522c-2.938-2-5.946-4.032-9.372-4.975a29.257,29.257,0,0,0-9.581-.566,64.74,64.74,0,0,0-18.353,3.337c-5.858,2.15-11.323,5.748-14.871,10.882-5.625,8.138-5.7,19.114-2.6,28.509s8.982,17.577,14.781,25.592l3.009-14.68c.268-1.307.615-2.74,1.7-3.514,2.7-1.923,6.009,2.026,9.326,2,2.131-.016,3.921-1.77,4.729-3.742a21.325,21.325,0,0,0,1.048-6.28c.4-4.5,1.968-10.754,6.226-13.235C208.551,163.852,215.117,164.535,219.578,164.13Z" transform="translate(-79.24 -73.384)" fill="#2f2e41"/>
    <path id="Path_318" data-name="Path 318" d="M235.651,498.871s-2.952,85.376-4.7,88,0-88.267,0-88.267Z" transform="translate(-96.931 -166.787)" opacity="0.1"/>
    <path id="Path_319" data-name="Path 319" d="M283.664,257.607h6.991s29.714,40.2,26.218,42.822,0,9.613,0,9.613l6.991,13.109s8.739,7.865,6.117,9.613-6.117,8.739-6.117,8.739-17.479-2.622-22.722,7.865L289.808,335.06Z" transform="translate(-110.753 -104.509)" fill="#d0cde1"/>
    <rect id="Rectangle_758" data-name="Rectangle 758" width="25.955" height="48.369" transform="translate(151.39 175.935) rotate(-22.438)" fill="#2f2e41"/>
    <ellipse id="Ellipse_38" data-name="Ellipse 38" cx="5.191" cy="4.769" rx="5.191" ry="4.769" transform="translate(164.13 185.415) rotate(-22.438)" fill="#d50000"/>
    <path id="Path_320" data-name="Path 320" d="M233.521,338.791s-62.923,52.436-73.41,35.831,11.361-30.587,11.361-30.587,19.226.874,41.075-13.109l21.848-9.613s19.946-28.476,26.743-17.633S249.536,333.4,233.521,338.791Z" transform="translate(-78.089 -115.779)" fill="#9f616a"/>
    <path id="Path_321" data-name="Path 321" d="M141.216,289.426l-9.613,3.5v26.218l-3.5,5.244s.874,10.487,3.5,13.109,7.865,1.748,6.117,7.865a33.125,33.125,0,0,0-.874,12.235s15.731,20.1,16.6,17.479,13.109-34.957,14.857-34.957-17.479-50.688-17.479-50.688Z" transform="translate(-70.555 -112.732)" fill="#d0cde1"/>
    <path id="Path_322" data-name="Path 322" d="M294.277,462.665s9.036-8.739,4.518-9.176-20.249-9.176-22.871-4.807S294.277,462.665,294.277,462.665Z" transform="translate(-108.695 -153.571)" fill="#2f2e41"/>
    <ellipse id="Ellipse_39" data-name="Ellipse 39" cx="12.5" cy="7" rx="12.5" ry="7" transform="translate(345 128.866)" fill="#57b894"/>
    <path id="Path_323" data-name="Path 323" d="M567.782,249.822q-42.641-16.1-85.282,0V214.967a147.6,147.6,0,0,1,85.282,0Z" transform="translate(-162.136 -91.864)" fill="none" stroke="#3f3d56" stroke-miterlimit="10" stroke-width="2"/>
    <path id="Path_324" data-name="Path 324" d="M560.051,244.092a84.392,84.392,0,0,0-61.551,0V218.936a106.531,106.531,0,0,1,61.551,0Z" transform="translate(-166.271 -93.342)" fill="none" stroke="#3f3d56" stroke-miterlimit="10" stroke-width="2"/>
    <ellipse id="Ellipse_40" data-name="Ellipse 40" cx="12.5" cy="7" rx="12.5" ry="7" transform="translate(349 125.866)" fill="none" stroke="#3f3d56" stroke-miterlimit="10" stroke-width="2"/>
    <ellipse id="Ellipse_41" data-name="Ellipse 41" cx="12.607" cy="6.674" rx="12.607" ry="6.674" transform="matrix(0.98, -0.2, 0.2, 0.98, 351.69, 173.626)" fill="#57b894"/>
    <path id="Path_325" data-name="Path 325" d="M581.34,294.985q-45-7.252-83.559,17.054l-6.97-34.15a147.6,147.6,0,0,1,83.559-17.054Z" transform="translate(-164.284 -105.183)" fill="none" stroke="#3f3d56" stroke-miterlimit="10" stroke-width="2"/>
    <path id="Path_326" data-name="Path 326" d="M572.5,292.032a84.392,84.392,0,0,0-60.308,12.309l-5.031-24.648a106.531,106.531,0,0,1,60.308-12.309Z" transform="translate(-168.508 -106.92)" fill="none" stroke="#3f3d56" stroke-miterlimit="10" stroke-width="2"/>
    <ellipse id="Ellipse_42" data-name="Ellipse 42" cx="12.607" cy="6.674" rx="12.607" ry="6.674" transform="matrix(0.98, -0.2, 0.2, 0.98, 355.456, 169.83)" fill="none" stroke="#3f3d56" stroke-miterlimit="10" stroke-width="2"/>
    <ellipse id="Ellipse_43" data-name="Ellipse 43" cx="6.674" cy="12.607" rx="6.674" ry="12.607" transform="translate(349.725 224.909) rotate(-86.019)" fill="#57b894"/>
    <path id="Path_327" data-name="Path 327" d="M572.789,365.625q-41.42-19.026-85.076-5.92l2.42-34.77a147.6,147.6,0,0,1,85.076,5.92Z" transform="translate(-163.483 -120.958)" fill="none" stroke="#3f3d56" stroke-miterlimit="10" stroke-width="2"/>
    <path id="Path_328" data-name="Path 328" d="M565.752,359.12a84.392,84.392,0,0,0-61.4-4.273l1.746-25.1a106.531,106.531,0,0,1,61.4,4.273Z" transform="translate(-167.782 -122.467)" fill="none" stroke="#3f3d56" stroke-miterlimit="10" stroke-width="2"/>
    <ellipse id="Ellipse_44" data-name="Ellipse 44" cx="6.674" cy="12.607" rx="6.674" ry="12.607" transform="translate(354.37 222.259) rotate(-86.019)" fill="none" stroke="#3f3d56" stroke-miterlimit="10" stroke-width="2"/>
    <path id="Path_329" data-name="Path 329" d="M432.866,264.845s-54.5-7.456-93.426,15.354" transform="translate(-125.167 -106.079)" fill="none" stroke="#3f3d56" stroke-miterlimit="10" stroke-width="2"/>
    <path id="Path_330" data-name="Path 330" d="M289.77,224.459l1.416.448-2.213,6.97,7.115,1.7-.346,1.444-8.664-2.07Z" transform="translate(-74.185 -58.004)" fill="#3f3d56"/>
    <path id="Path_331" data-name="Path 331" d="M432.866,264.845s-54.5-7.456-93.426,15.354" transform="translate(322.21 891.845) rotate(-135)" fill="none" stroke="#3f3d56" stroke-miterlimit="10" stroke-width="2"/>
    <path id="Path_332" data-name="Path 332" d="M289.77,224.459l1.416.448-2.213,6.97,7.115,1.7-.346,1.444-8.664-2.07Z" transform="translate(320.811 822.149) rotate(-135)" fill="#3f3d56"/>
    <path id="Path_333" data-name="Path 333" d="M432.866,264.845s-54.5-7.456-93.426,15.354" transform="translate(847.271 753.363) rotate(-180)" fill="none" stroke="#3f3d56" stroke-miterlimit="10" stroke-width="2"/>
    <path id="Path_334" data-name="Path 334" d="M289.77,224.459l1.416.448-2.213,6.97,7.115,1.7-.346,1.444-8.664-2.07Z" transform="matrix(-0.966, -0.259, 0.259, -0.966, 726.671, 772.382)" fill="#3f3d56"/>
    <path id="Path_210" data-name="Path 210" d="M623.247,469.052" transform="translate(-273.676 29.812)" fill="none" stroke="#3f3d56" stroke-miterlimit="10" stroke-width="2"/>
    <path id="Path_223" data-name="Path 223" d="M624.465,427.719l-1.99,7.976c2.255.562,9.207,2.856,10.334-1.658C633.983,429.331,626.721,428.281,624.465,427.719Z" transform="translate(-273.653 31.014)" fill="#d50000"/>
    <path id="Path_224" data-name="Path 224" d="M621.377,440.08l-2.194,8.795c2.708.673,11.061,3.355,12.3-1.607C632.769,442.095,624.085,440.756,621.377,440.08Z" transform="translate(-273.557 30.654)" fill="#d50000"/>
    <path id="Path_225" data-name="Path 225" d="M632.433,403.231a36.4,36.4,0,1,0,26.514,44.13,36.4,36.4,0,0,0-26.514-44.13Zm7.245,30.135c-.525,3.547-2.49,5.264-5.1,5.865,3.584,1.865,5.408,4.728,3.67,9.689-2.155,6.161-7.279,6.681-14.09,5.392l-1.654,6.626-4-1,1.631-6.537q-1.6-.4-3.184-.825l-1.637,6.567-3.991-1,1.654-6.637c-.933-.239-1.881-.493-2.848-.735l-5.2-1.3,1.983-4.572s2.944.784,2.9.725a1.453,1.453,0,0,0,1.83-.95l2.613-10.473c.147.036.289.071.421.1a3.39,3.39,0,0,0-.415-.133l1.863-7.477a2.126,2.126,0,0,0-1.861-2.323c.063-.043-2.9-.721-2.9-.721l1.063-4.267,5.51,1.376,0,.02c.828.206,1.682.4,2.552.6l1.637-6.561,3.992,1-1.6,6.432c1.072.245,2.151.491,3.2.752l1.593-6.39,3.994,1-1.636,6.564c5.043,1.737,8.732,4.341,8.007,9.187Z" transform="translate(-272.628 31.757)" fill="#d50000"/>
  </g>
</svg>
