<svg id="undraw_sign_in_e6hj" xmlns="http://www.w3.org/2000/svg" width="700.516" height="421.345" viewBox="0 0 700.516 421.345">
  <path id="Path_249" data-name="Path 249" d="M110.786,572.619,152.1,513.258l-41.336,65.818-.024,6.754q-4.419-.037-8.749-.287c-.013-1.534,3.5-85.91,3.349-87.436.2-.058.318-7.98.4-8.327L62.578,424.911l43.208,58.729.129,1.736,2.563-65.555-37.1-67.131,37.4,55.612c.014-.892,1.77-135.491,1.787-136.322.011.441.817,107.115.823,107.564l35.484-42.938-35.518,52.164-.181,58.671,32.929-56.736c-41.095,82.74-32,53.786-33.05,97.986l47.831-79L111,500.073Z" transform="translate(-62.359 -177.257)" fill="#d0cde1"/>
  <path id="Path_250" data-name="Path 250" d="M1096.235,678.863l17.217-24.737-17.226,27.428-.01,2.814q-1.842-.015-3.646-.12c-.005-.639,1.458-35.8,1.4-36.437.085-.024.133-3.326.166-3.47l-17.987-27.032,18.006,24.474.054.723,1.068-27.318-15.461-27.975,15.584,23.175c.006-.372.738-56.463.745-56.809,0,.184.34,44.637.343,44.825l14.787-17.893-14.8,21.738-.076,24.45,13.722-23.643c-17.125,34.48-13.335,22.414-13.773,40.833l19.932-32.922-19.949,37.664Z" transform="translate(-415.76 -275.443)" fill="#d0cde1"/>
  <ellipse id="Ellipse_27" data-name="Ellipse 27" cx="349.113" cy="13.678" rx="349.113" ry="13.678" transform="translate(0 393.989)" fill="#d0cde1"/>
  <rect id="Rectangle_746" data-name="Rectangle 746" width="398.614" height="237.651" transform="translate(119.845 161.55)" fill="#3f3d56"/>
  <path id="Path_251" data-name="Path 251" d="M344.893,374.581a95.325,95.325,0,0,1-95.3,93.772c-1.12,0-2.234-.02-3.348-.059V374.581Z" transform="translate(-126.397 -213.031)" fill="#d50000"/>
  <path id="Path_252" data-name="Path 252" d="M561.884,732.37H523.972a20.2,20.2,0,0,1,37.912,0Z" transform="translate(-223.234 -333.17)" fill="#d50000"/>
  <path id="Path_253" data-name="Path 253" d="M837.838,550.721v80.048a40.072,40.072,0,0,1,0-80.048Z" transform="translate(-319.379 -274.446)" fill="#d50000"/>
  <rect id="Rectangle_747" data-name="Rectangle 747" width="274.954" height="23.489" rx="11.744" transform="translate(182.02 247.906)" fill="#fff"/>
  <rect id="Rectangle_748" data-name="Rectangle 748" width="274.954" height="23.489" rx="11.744" transform="translate(182.02 294.192)" fill="#fff"/>
  <rect id="Rectangle_749" data-name="Rectangle 749" width="96.4" height="23.489" rx="11.744" transform="translate(360.574 340.478)" fill="#fff"/>
  <path id="Path_254" data-name="Path 254" d="M948.774,238.662s10.961,4.263,11.57,18.268-3.045,52.978-3.045,52.978,13.4,19.486,3.045,24.967-11.57-21.922-11.57-21.922L936.6,255.1S943.9,238.053,948.774,238.662Z" transform="translate(-367.103 -165.635)" fill="#a0616a"/>
  <path id="Path_255" data-name="Path 255" d="M768.538,265.017s-26.185,17.051-27.4,3.654,7.916-65.766,7.916-65.766,1.218-22.531,14.006-17.051-3.654,24.358-3.654,24.358l1.827,42.626,12.179-.609Z" transform="translate(-298.913 -146.928)" fill="#a0616a"/>
  <path id="Path_256" data-name="Path 256" d="M806.941,325.778s-80.381-29.838-76.118,4.872S755.79,409.2,755.79,409.2l7.307,11.57h15.224l-9.743-62.722s34.71,19.486,45.062,16.442c0,0,13.4,89.515,18.268,96.214s13.4,87.689,13.4,87.689l7.916,9.743h15.224V431.126s26.185-85.253,6.089-89.515S806.941,325.778,806.941,325.778Z" transform="translate(-295.299 -191.856)" fill="#2f2e41"/>
  <path id="Path_257" data-name="Path 257" d="M752.757,464.264s-3.654-6.7-9.743,0-20.7,14.615-20.7,14.615-31.665,7.307-6.089,13.4,28.621,0,28.621,0,4.263,1.218,7.916,2.436,27.4-3.045,27.4-6.7-8.062-25.489-11.339-22.183S752.757,464.264,752.757,464.264Z" transform="translate(-286.785 -243.263)" fill="#2f2e41"/>
  <path id="Path_258" data-name="Path 258" d="M900.142,691.981s-8.979-7.394-11.091-5.282-13.2,16.373-13.2,16.373-29.577,22.711-2.641,26.408,25.352-6.338,25.352-6.338h8.45c1.056,0,15.317-6.338,14.788-8.979s-6.866-24.175-8.979-22.65S900.142,691.981,900.142,691.981Z" transform="translate(-341.053 -321.725)" fill="#2f2e41"/>
  <circle id="Ellipse_28" data-name="Ellipse 28" cx="20.704" cy="20.704" r="20.704" transform="translate(456.837 8.478)" fill="#a0616a"/>
  <path id="Path_259" data-name="Path 259" d="M811.013,167.615s15.833,13.4,26.794,13.4-15.833,24.967-15.833,24.967l-23.749-21.313Z" transform="translate(-318.857 -140.869)" fill="#a0616a"/>
  <path id="Path_260" data-name="Path 260" d="M808.138,206.244l-.474-4.8s12.044-21.387,15.7-23.214a15.117,15.117,0,0,1,6.089-1.827s12.179-12.788,25.576-6.089,45.062,49.325,45.062,49.325-22.531,1.827-19.486,19.486c0,0,22.531,57.85,16.442,58.459s-24.358-3.654-43.235,4.872-27.4,3.045-27.4,3.045l-9.743-31.665S798.4,263.485,799,254.351l-26.489,11.874,2.436-22.531,16.137-18.573S788.043,222.686,808.138,206.244Z" transform="translate(-309.893 -141.133)" fill="#575a89"/>
  <path id="Path_261" data-name="Path 261" d="M760.63,157.971a7.644,7.644,0,0,1-3.007,2.048,2.622,2.622,0,0,1-3.135-1.207l.875-1.139-2.624-1.631,1.144-1.342-2.114-2.3,1.668-1.324-3.177-2.272c4.117-6.718,8.57-13.521,15.07-17.974s15.583-6.036,22.242-1.824c3.457,2.187,5.9,5.658,7.86,9.25,3.938,7.223,7.41,14.265,7.922,22.476-2.474-2.409-6.086-3.767-8.559-6.176a18.541,18.541,0,0,0-3.693-3.023c-2.588-1.459-5.684-1.588-8.58-2.246a12.891,12.891,0,0,1-5.859-3.221c-2.192-1.867-2.281-1.145-4.5.957Q766.4,152.5,760.63,157.971Z" transform="translate(-302.133 -126.55)" fill="#2f2e41"/>
</svg>
